<svg id="background" xmlns="http://www.w3.org/2000/svg" version="1.1" xmlns:xlink="http://www.w3.org/1999/xlink" viewBox="0 -0 1920 1080" xml:space="preserve">
<g id="back" transform="matrix(1.000, 0.000, 0.000, 1.000, 0.000, -0.000)">
<path d="M 1584.00,48.00 L 1536.00,72.00 L 1512.00,60.00 L 1416.00,108.00 L 1320.00,60.00 L 1272.00,84.00 L 1248.00,72.00 L 1152.00,120.00 L 1128.00,108.00 L 1104.00,120.00 L 1056.00,96.00 L 1032.00,108.00 L 984.00,84.00 L 936.00,108.00 L 864.00,72.00 L 816.00,96.00 L 792.00,84.00 L 768.00,96.00 L 720.00,72.00 L 696.00,84.00 L 672.00,72.00 L 600.00,108.00 L 504.00,60.00 L 480.00,72.00 L 456.00,60.00 L 360.00,108.00 L 336.00,96.00 L 312.00,108.00 L 288.00,96.00 L 216.00,132.00 L 120.00,84.00 L 96.00,96.00 L 72.00,84.00 L 24.00,108.00 L 0.00,96.00 L 0.00,1080.00 L 1920.00,1080.00 L 1920.00,96.00 L 1896.00,84.00 L 1848.00,108.00 L 1824.00,96.00 L 1800.00,108.00 L 1728.00,72.00 L 1680.00,96.00 L 1584.00,48.00  z
" style="fill:#111C34;fill-opacity:1.00"/>
</g>
</svg>
