<svg id="background" xmlns="http://www.w3.org/2000/svg" version="1.1" xmlns:xlink="http://www.w3.org/1999/xlink" viewBox="0 -0 1920 1080" xml:space="preserve">
<g id="front" transform="matrix(1.000, 0.000, 0.000, 1.000, 0.000, -0.000)">
<path d="M 1200.00,48.00 L 1176.00,60.00 L 1176.00,108.00 L 1152.00,120.00 L 1152.00,168.00 L 1128.00,180.00 L 1128.00,156.00 L 1104.00,168.00 L 1104.00,192.00 L 1080.00,204.00 L 984.00,156.00 L 936.00,180.00 L 912.00,168.00 L 888.00,180.00 L 876.00,174.00 L 880.00,168.00 L 896.00,168.00 L 904.00,156.00 L 896.00,144.00 L 880.00,144.00 L 872.00,156.00 L 864.00,156.00 L 864.00,144.00 L 848.00,144.00 L 852.00,138.00 L 840.00,132.00 L 852.00,126.00 L 856.00,132.00 L 872.00,132.00 L 880.00,120.00 L 872.00,108.00 L 856.00,108.00 L 852.00,114.00 L 840.00,108.00 L 828.00,114.00 L 824.00,108.00 L 808.00,108.00 L 800.00,96.00 L 784.00,96.00 L 776.00,108.00 L 784.00,120.00 L 800.00,120.00 L 804.00,114.00 L 816.00,120.00 L 832.00,120.00 L 824.00,132.00 L 808.00,132.00 L 800.00,144.00 L 808.00,156.00 L 824.00,156.00 L 832.00,144.00 L 840.00,144.00 L 840.00,156.00 L 852.00,162.00 L 848.00,168.00 L 832.00,168.00 L 824.00,180.00 L 832.00,192.00 L 848.00,192.00 L 856.00,180.00 L 864.00,192.00 L 828.00,210.00 L 824.00,204.00 L 808.00,204.00 L 804.00,210.00 L 720.00,168.00 L 672.00,192.00 L 648.00,180.00 L 600.00,204.00 L 600.00,132.00 L 576.00,144.00 L 576.00,192.00 L 552.00,204.00 L 552.00,228.00 L 528.00,216.00 L 504.00,228.00 L 456.00,204.00 L 432.00,216.00 L 384.00,192.00 L 336.00,216.00 L 264.00,180.00 L 240.00,192.00 L 240.00,168.00 L 264.00,156.00 L 264.00,84.00 L 240.00,72.00 L 240.00,144.00 L 216.00,156.00 L 216.00,84.00 L 192.00,96.00 L 192.00,144.00 L 168.00,156.00 L 168.00,204.00 L 144.00,192.00 L 144.00,144.00 L 120.00,156.00 L 120.00,180.00 L 96.00,192.00 L 72.00,180.00 L 0.00,216.00 L 0.00,1080.00 L 1920.00,1080.00 L 1920.00,216.00 L 1800.00,156.00 L 1752.00,180.00 L 1728.00,168.00 L 1668.00,198.00 L 1664.00,192.00 L 1648.00,192.00 L 1640.00,180.00 L 1648.00,168.00 L 1664.00,168.00 L 1672.00,156.00 L 1664.00,144.00 L 1648.00,144.00 L 1640.00,156.00 L 1632.00,144.00 L 1648.00,120.00 L 1640.00,108.00 L 1624.00,108.00 L 1616.00,120.00 L 1624.00,132.00 L 1616.00,144.00 L 1624.00,156.00 L 1608.00,156.00 L 1596.00,162.00 L 1592.00,156.00 L 1576.00,156.00 L 1568.00,168.00 L 1576.00,180.00 L 1592.00,180.00 L 1600.00,168.00 L 1616.00,168.00 L 1640.00,204.00 L 1632.00,216.00 L 1608.00,204.00 L 1584.00,216.00 L 1536.00,192.00 L 1512.00,204.00 L 1464.00,180.00 L 1416.00,204.00 L 1344.00,168.00 L 1296.00,192.00 L 1248.00,168.00 L 1248.00,192.00 L 1224.00,180.00 L 1224.00,156.00 L 1248.00,144.00 L 1248.00,120.00 L 1224.00,108.00 L 1224.00,132.00 L 1200.00,144.00 L 1200.00,168.00 L 1176.00,180.00 L 1176.00,132.00 L 1200.00,120.00 L 1200.00,48.00  z
M 216.00,156.00 L 216.00,204.00 L 192.00,192.00 L 192.00,168.00 L 216.00,156.00  z
" style="fill:#03070a;fill-opacity:1.00"/>
</g>
</svg>
