<svg width="100%" height="100%" role="img" aria-label="deepdwn" viewBox="0 0 482 94" version="1.1" xmlns="http://www.w3.org/2000/svg" xmlns:xlink="http://www.w3.org/1999/xlink" xml:space="preserve" xmlns:serif="http://www.serif.com/" style="fill-rule:evenodd;clip-rule:evenodd;stroke-linejoin:round;stroke-miterlimit:2;"><title>deepdwn</title>
    <path d="M255.564,39.121C255.635,39.888 255.685,40.676 255.713,41.483C255.784,42.191 255.82,43.608 255.82,45.733C255.82,47.928 255.784,49.38 255.713,50.088C255.43,58.092 253.093,64.165 248.702,68.308C244.31,72.451 238.715,74.523 231.916,74.523C228.233,74.523 225.259,73.886 222.992,72.611C220.726,71.336 218.955,69.848 217.68,68.149L217.68,90.777C217.68,91.556 217.397,92.229 216.83,92.796C216.264,93.362 215.591,93.646 214.812,93.646L201.426,93.646C200.647,93.646 199.974,93.362 199.408,92.796C198.841,92.229 198.558,91.556 198.558,90.777L198.558,39.121L218.507,39.121C218.115,40.042 217.839,41.042 217.68,42.121C217.539,43.537 217.468,44.776 217.468,45.839C217.468,46.901 217.539,48.141 217.68,49.557C217.964,51.894 218.884,53.895 220.442,55.56C222.001,57.224 224.232,58.056 227.135,58.056C230.252,58.056 232.571,57.206 234.094,55.506C235.617,53.807 236.484,51.576 236.697,48.814C236.838,47.397 236.909,46.405 236.909,45.839C236.909,45.272 236.838,44.281 236.697,42.864C236.591,41.484 236.321,40.236 235.887,39.121L255.564,39.121ZM188.177,39.121C188.653,41.384 188.89,43.694 188.89,46.051L188.89,49.026C188.89,49.805 188.607,50.478 188.04,51.044C187.474,51.611 186.801,51.894 186.022,51.894L150.645,51.894C150.645,54.869 151.601,56.994 153.513,58.269C155.425,59.543 157.656,60.181 160.206,60.181C162.189,60.181 163.818,59.968 165.093,59.543C166.368,59.119 167.465,58.517 168.386,57.737C169.165,57.1 169.732,56.693 170.086,56.516C170.44,56.339 171.042,56.25 171.892,56.25L185.703,56.25C186.411,56.25 186.978,56.463 187.403,56.888C187.828,57.312 188.04,57.879 188.04,58.587C188.04,60.004 186.978,62.005 184.853,64.59C182.728,67.175 179.577,69.477 175.398,71.495C171.219,73.514 166.155,74.523 160.206,74.523C151.07,74.523 144.005,71.991 139.012,66.927C134.018,61.863 131.522,54.834 131.522,45.839C131.522,43.487 131.719,41.247 132.113,39.121L150.803,39.121C150.737,39.441 150.684,39.768 150.645,40.102L169.767,40.102C169.728,39.768 169.675,39.441 169.609,39.121L188.177,39.121ZM123.691,39.121C124.166,41.384 124.404,43.694 124.404,46.051L124.404,49.026C124.404,49.805 124.121,50.478 123.554,51.044C122.987,51.611 122.315,51.894 121.536,51.894L86.158,51.894C86.158,54.869 87.115,56.994 89.027,58.269C90.939,59.543 93.17,60.181 95.72,60.181C97.703,60.181 99.332,59.968 100.607,59.543C101.882,59.119 102.979,58.517 103.9,57.737C104.679,57.1 105.246,56.693 105.6,56.516C105.954,56.339 106.556,56.25 107.406,56.25L121.217,56.25C121.925,56.25 122.492,56.463 122.917,56.888C123.342,57.312 123.554,57.879 123.554,58.587C123.554,60.004 122.492,62.005 120.367,64.59C118.242,67.175 115.09,69.477 110.912,71.495C106.733,73.514 101.669,74.523 95.72,74.523C86.583,74.523 79.519,71.991 74.526,66.927C69.532,61.863 67.036,54.834 67.036,45.839C67.036,43.487 67.233,41.247 67.627,39.121L86.316,39.121C86.25,39.441 86.198,39.768 86.158,40.102L105.281,40.102C105.242,39.768 105.189,39.441 105.123,39.121L123.691,39.121ZM57.262,39.121L57.262,70.592C57.262,71.371 56.979,72.044 56.412,72.611C55.845,73.177 55.173,73.461 54.394,73.461L41.539,73.461C40.76,73.461 40.087,73.177 39.52,72.611C38.954,72.044 38.67,71.371 38.67,70.592L38.67,68.149C37.537,69.494 36.457,70.592 35.43,71.442C34.403,72.292 32.951,73.018 31.074,73.62C29.198,74.222 26.807,74.523 23.903,74.523C17.175,74.523 11.598,72.469 7.171,68.361C2.744,64.253 0.39,58.198 0.106,50.195L0,45.839L0.106,41.589C0.136,40.745 0.189,39.922 0.265,39.121L19.932,39.121C19.499,40.236 19.229,41.484 19.123,42.864C19.052,43.572 19.016,44.564 19.016,45.839C19.016,47.114 19.052,48.105 19.123,48.814C19.335,51.576 20.203,53.807 21.726,55.506C23.248,57.206 25.568,58.056 28.684,58.056C31.588,58.056 33.801,57.242 35.324,55.613C36.847,53.984 37.785,51.965 38.139,49.557C38.281,48.849 38.352,47.609 38.352,45.839C38.352,44.068 38.281,42.829 38.139,42.121C38.009,41.05 37.746,40.05 37.349,39.121L57.262,39.121ZM320.943,39.121L320.943,70.592C320.943,71.371 320.66,72.044 320.093,72.611C319.527,73.177 318.854,73.461 318.075,73.461L305.22,73.461C304.441,73.461 303.768,73.177 303.201,72.611C302.635,72.044 302.351,71.371 302.351,70.592L302.351,68.149C301.218,69.494 300.138,70.592 299.111,71.442C298.084,72.292 296.632,73.018 294.756,73.62C292.879,74.222 290.488,74.523 287.585,74.523C280.856,74.523 275.279,72.469 270.852,68.361C266.426,64.253 264.071,58.198 263.787,50.195L263.681,45.839L263.787,41.589C263.817,40.745 263.87,39.922 263.946,39.121L283.613,39.121C283.18,40.236 282.91,41.484 282.804,42.864C282.733,43.572 282.698,44.564 282.698,45.839C282.698,47.114 282.733,48.105 282.804,48.814C283.016,51.576 283.884,53.807 285.407,55.506C286.929,57.206 289.249,58.056 292.365,58.056C295.269,58.056 297.482,57.242 299.005,55.613C300.528,53.984 301.466,51.965 301.82,49.557C301.962,48.849 302.033,47.609 302.033,45.839C302.033,44.068 301.962,42.829 301.82,42.121C301.691,41.05 301.427,40.05 301.03,39.121L320.943,39.121ZM410.652,39.121L399.771,70.805C399.205,72.575 398.036,73.461 396.265,73.461L384.154,73.461C382.525,73.461 381.357,72.575 380.648,70.805L373.106,48.495L365.563,70.805C364.854,72.575 363.686,73.461 362.057,73.461L349.946,73.461C348.175,73.461 347.007,72.575 346.44,70.805L335.559,39.121L354.76,39.121L356.639,44.883L358.517,39.121L387.694,39.121L389.572,44.883L391.451,39.121L410.652,39.121ZM481.836,39.121C481.874,39.855 481.893,40.607 481.893,41.377L481.893,70.592C481.893,71.371 481.609,72.044 481.043,72.611C480.476,73.177 479.803,73.461 479.024,73.461L465.638,73.461C464.859,73.461 464.186,73.177 463.62,72.611C463.053,72.044 462.77,71.371 462.77,70.592L462.77,43.714C462.77,41.98 462.534,40.449 462.062,39.121L481.836,39.121ZM445.074,39.121C444.619,40.44 444.391,41.971 444.391,43.714L444.391,70.592C444.391,71.371 444.108,72.044 443.541,72.611C442.974,73.177 442.301,73.461 441.522,73.461L428.137,73.461C427.357,73.461 426.685,73.177 426.118,72.611C425.551,72.044 425.268,71.371 425.268,70.592L425.268,39.121L445.074,39.121ZM1.255,33.532L57.262,33.532L57.262,38.025L36.8,38.025C36.406,37.347 35.932,36.711 35.377,36.118C33.819,34.454 31.588,33.622 28.684,33.622C25.568,33.622 23.248,34.471 21.726,36.171C21.224,36.732 20.793,37.349 20.433,38.025L0.384,38.025C0.58,36.439 0.871,34.941 1.255,33.532ZM89.581,33.532C89.409,33.678 89.242,33.832 89.08,33.993C87.917,35.156 87.092,36.5 86.603,38.025L67.85,38.025C68.196,36.465 68.652,34.967 69.218,33.532L89.581,33.532ZM121.999,33.532C122.588,35.008 123.069,36.506 123.442,38.025L104.837,38.025C104.348,36.5 103.522,35.156 102.36,33.993C102.198,33.832 102.031,33.678 101.859,33.532L121.999,33.532ZM154.067,33.532C153.895,33.678 153.728,33.832 153.566,33.993C152.404,35.156 151.578,36.5 151.089,38.025L132.336,38.025C132.682,36.465 133.138,34.967 133.704,33.532L154.067,33.532ZM186.485,33.532C187.074,35.008 187.556,36.506 187.928,38.025L169.323,38.025C168.834,36.5 168.008,35.156 166.846,33.993C166.684,33.832 166.517,33.678 166.345,33.532L186.485,33.532ZM254.584,33.532C254.967,34.941 255.254,36.438 255.447,38.025L235.386,38.025C235.027,37.349 234.596,36.732 234.094,36.171C232.571,34.471 230.252,33.622 227.135,33.622C224.232,33.622 222.018,34.436 220.496,36.065C219.934,36.665 219.452,37.319 219.05,38.025L198.558,38.025L198.558,33.532L254.584,33.532ZM264.936,33.532L320.943,33.532L320.943,38.025L300.481,38.025C300.088,37.347 299.613,36.711 299.058,36.118C297.5,34.454 295.269,33.622 292.365,33.622C289.249,33.622 286.929,34.471 285.407,36.171C284.905,36.732 284.474,37.349 284.114,38.025L264.065,38.025C264.261,36.439 264.552,34.941 264.936,33.532ZM354.403,38.025L335.183,38.025L333.64,33.532L352.939,33.532L354.403,38.025ZM387.337,38.025L358.874,38.025L360.339,33.532L385.872,33.532L387.337,38.025ZM411.028,38.025L391.808,38.025L393.273,33.532L412.571,33.532L411.028,38.025ZM481.114,33.532C481.423,34.939 481.641,36.437 481.765,38.025L461.598,38.025C461.288,37.408 460.918,36.843 460.486,36.331C458.963,34.525 456.644,33.622 453.527,33.622C450.482,33.622 448.198,34.507 446.675,36.277C446.227,36.799 445.844,37.381 445.528,38.025L425.268,38.025L425.268,33.532L481.114,33.532ZM3.532,27.943L57.262,27.943L57.262,31.889L1.76,31.889C2.245,30.475 2.836,29.16 3.532,27.943ZM118.999,27.943C119.88,29.176 120.645,30.491 121.293,31.889L98.745,31.889C97.823,31.628 96.814,31.497 95.72,31.497C94.625,31.497 93.617,31.628 92.694,31.889L69.927,31.889C70.073,31.578 70.225,31.27 70.382,30.966C70.932,29.901 71.545,28.894 72.222,27.943L118.999,27.943ZM183.485,27.943C184.367,29.176 185.131,30.491 185.779,31.889L163.231,31.889C162.309,31.628 161.301,31.497 160.206,31.497C159.111,31.497 158.103,31.628 157.18,31.889L134.413,31.889C134.559,31.578 134.711,31.27 134.868,30.966C135.418,29.901 136.031,28.894 136.708,27.943L183.485,27.943ZM252.31,27.943C253.007,29.159 253.597,30.474 254.082,31.889L198.558,31.889L198.558,27.943L252.31,27.943ZM267.213,27.943L320.943,27.943L320.943,31.889L265.441,31.889C265.926,30.475 266.517,29.16 267.213,27.943ZM352.403,31.889L333.076,31.889L331.721,27.943L351.117,27.943L352.403,31.889ZM385.337,31.889L360.875,31.889L362.161,27.943L384.05,27.943L385.337,31.889ZM413.135,31.889L393.808,31.889L395.094,27.943L414.49,27.943L413.135,31.889ZM479.166,27.943C479.781,29.156 480.292,30.472 480.699,31.889L425.268,31.889L425.268,27.943L479.166,27.943ZM38.139,22.355L57.262,22.355L57.262,25.753L4.978,25.753C5.627,24.898 6.34,24.103 7.118,23.37C7.492,23.016 7.876,22.678 8.268,22.355L37.147,22.355C37.506,22.734 37.837,23.125 38.139,23.529L38.139,22.355ZM113.468,22.355C114.86,23.389 116.115,24.522 117.231,25.753L73.984,25.753C75.122,24.498 76.395,23.366 77.804,22.355L113.468,22.355ZM177.954,22.355C179.346,23.389 180.601,24.522 181.717,25.753L138.47,25.753C139.608,24.498 140.881,23.366 142.29,22.355L177.954,22.355ZM247.545,22.355C247.92,22.661 248.288,22.982 248.649,23.317C249.454,24.064 250.191,24.876 250.859,25.753L198.558,25.753L198.558,22.355L217.149,22.355L217.149,23.529C217.499,23.114 217.843,22.722 218.183,22.355L247.545,22.355ZM301.82,22.355L320.943,22.355L320.943,25.753L268.659,25.753C269.308,24.898 270.021,24.103 270.799,23.37C271.174,23.016 271.557,22.678 271.949,22.355L300.828,22.355C301.187,22.734 301.518,23.125 301.82,23.529L301.82,22.355ZM350.403,25.753L330.969,25.753L329.802,22.355L349.295,22.355L350.403,25.753ZM383.336,25.753L362.875,25.753L363.983,22.355L382.228,22.355L383.336,25.753ZM415.242,25.753L395.809,25.753L396.916,22.355L416.409,22.355L415.242,25.753ZM474.802,22.355C475.12,22.629 475.429,22.914 475.731,23.21C476.518,23.984 477.23,24.831 477.866,25.753L425.268,25.753L425.268,22.355L443.86,22.355L443.86,23.529C444.182,23.118 444.52,22.726 444.873,22.355L474.802,22.355ZM12.497,19.617C15.822,17.975 19.624,17.155 23.903,17.155C27.586,17.155 30.561,17.792 32.827,19.067C33.146,19.246 33.454,19.429 33.752,19.617L12.497,19.617ZM57.262,19.617L38.139,19.617L38.139,16.766L57.262,16.766L57.262,19.617ZM82.631,19.617C86.424,17.975 90.786,17.155 95.72,17.155C100.765,17.155 105.134,17.975 108.829,19.617L82.631,19.617ZM147.118,19.617C150.91,17.975 155.272,17.155 160.206,17.155C165.251,17.155 169.62,17.975 173.315,19.617L147.118,19.617ZM198.967,19.617C199.087,19.424 199.234,19.24 199.408,19.067C199.974,18.5 200.647,18.217 201.426,18.217L214.281,18.217C215.06,18.217 215.733,18.5 216.299,19.067C216.473,19.24 216.619,19.424 216.739,19.617L198.967,19.617ZM221.247,19.617C222.175,19.028 223.341,18.508 224.745,18.058C226.622,17.456 229.012,17.155 231.916,17.155C236.169,17.155 239.962,17.975 243.295,19.617L221.247,19.617ZM276.178,19.617C279.503,17.975 283.305,17.155 287.585,17.155C291.267,17.155 294.242,17.792 296.508,19.067C296.827,19.246 297.135,19.429 297.433,19.617L276.178,19.617ZM320.943,19.617L301.82,19.617L301.82,16.766L320.943,16.766L320.943,19.617ZM329.705,19.617C329.824,19.381 329.985,19.162 330.186,18.961C330.681,18.465 331.283,18.217 331.992,18.217L345.165,18.217C346.477,18.217 347.478,18.684 348.167,19.617L329.705,19.617ZM365.11,19.617C365.8,18.684 366.801,18.217 368.112,18.217L378.099,18.217C379.41,18.217 380.411,18.684 381.101,19.617L365.11,19.617ZM398.044,19.617C398.734,18.684 399.734,18.217 401.046,18.217L414.219,18.217C414.928,18.217 415.53,18.465 416.025,18.961C416.227,19.162 416.387,19.381 416.506,19.617L398.044,19.617ZM425.678,19.617C425.798,19.424 425.945,19.24 426.118,19.067C426.685,18.5 427.357,18.217 428.137,18.217L440.991,18.217C441.77,18.217 442.443,18.5 443.01,19.067C443.183,19.24 443.33,19.424 443.45,19.617L425.678,19.617ZM448.355,19.617C451.207,17.975 454.701,17.155 458.839,17.155C463.4,17.155 467.342,17.975 470.665,19.617L448.355,19.617ZM57.262,13.48L38.139,13.48L38.139,11.177L57.262,11.177L57.262,13.48ZM320.943,13.48L301.82,13.48L301.82,11.177L320.943,11.177L320.943,13.48ZM57.262,7.344L38.139,7.344L38.139,5.589L57.262,5.589L57.262,7.344ZM320.943,7.344L301.82,7.344L301.82,5.589L320.943,5.589L320.943,7.344ZM57.12,0C57.215,0.282 57.262,0.583 57.262,0.9L57.262,1.208L38.139,1.208L38.139,0.9C38.139,0.583 38.186,0.282 38.281,0L57.12,0ZM320.802,0C320.896,0.282 320.943,0.583 320.943,0.9L320.943,1.208L301.82,1.208L301.82,0.9C301.82,0.583 301.867,0.282 301.962,0L320.802,0Z" style="fill:#61f8f8;fill-rule:nonzero;"/>
</svg>
