<?xml version="1.0" encoding="UTF-8" standalone="no"?>
<!DOCTYPE svg PUBLIC "-//W3C//DTD SVG 1.1//EN" "http://www.w3.org/Graphics/SVG/1.1/DTD/svg11.dtd">
<svg width="100%" height="100%" viewBox="0 0 96 132" version="1.1" xmlns="http://www.w3.org/2000/svg" xmlns:xlink="http://www.w3.org/1999/xlink" xml:space="preserve" xmlns:serif="http://www.serif.com/" style="fill-rule:evenodd;clip-rule:evenodd;stroke-linejoin:round;stroke-miterlimit:2;">
    <path id="diver" d="M35.384,21.196C36.476,17.552 41.546,14.792 47.628,14.792C53.71,14.792 58.78,17.552 59.872,21.196C67.902,24.973 73.911,32.351 75.813,41.242C78.842,42.572 81.008,46.089 81.008,50.214C81.008,55.276 77.745,59.423 73.629,59.735C71.245,64.704 67.478,68.885 62.827,71.78L62.827,74.059C68.559,74.981 73.896,76.411 78.664,78.254C80.033,78.802 80.796,80.267 80.461,81.703C75.63,101.968 62.746,116.48 47.628,116.48C32.51,116.48 19.626,101.968 14.795,81.703C14.459,80.267 15.223,78.802 16.592,78.254C21.36,76.411 26.697,74.981 32.428,74.059L32.428,71.78C27.778,68.885 24.01,64.703 21.626,59.735C17.511,59.423 14.248,55.276 14.248,50.214C14.248,46.089 16.414,42.572 19.442,41.242C21.344,32.351 27.353,24.974 35.384,21.196ZM51.831,60.955C51.064,60.609 50.345,60.121 49.714,59.491L47.628,57.405L45.542,59.491C44.911,60.121 44.192,60.609 43.424,60.955C44.754,61.364 46.165,61.584 47.628,61.584C49.09,61.584 50.502,61.364 51.831,60.955ZM40.257,50.034L38.171,52.12C36.893,53.398 36.893,55.472 38.171,56.749C39.448,58.027 41.522,58.027 42.8,56.749L44.886,54.663L40.257,50.034ZM54.999,50.034L50.37,54.663L52.456,56.749C53.733,58.027 55.808,58.027 57.085,56.749C58.362,55.472 58.362,53.398 57.085,52.12L54.999,50.034ZM42.999,47.292L47.628,51.921L52.257,47.292L47.628,42.663L42.999,47.292ZM33.965,43.089C33.949,43.141 33.933,43.193 33.917,43.246L32.428,43.246C31.089,43.246 30.001,44.334 30.001,45.674L30.001,48.91C30.001,50.25 31.089,51.338 32.428,51.338L33.917,51.338C33.933,51.391 33.949,51.443 33.965,51.495C34.31,50.728 34.798,50.009 35.429,49.378L37.515,47.292L35.429,45.206C34.798,44.575 34.31,43.856 33.965,43.089ZM61.291,43.089C60.945,43.856 60.457,44.575 59.827,45.206L57.741,47.292L59.827,49.378C60.457,50.009 60.945,50.728 61.291,51.495C61.307,51.443 61.323,51.391 61.338,51.338L62.827,51.338C64.167,51.338 65.255,50.25 65.255,48.91L65.255,45.674C65.255,44.334 64.167,43.246 62.827,43.246L61.338,43.246C61.323,43.193 61.307,43.141 61.291,43.089ZM54.999,44.55L57.085,42.464C58.362,41.186 58.362,39.112 57.085,37.835C55.808,36.557 53.733,36.557 52.456,37.835L50.37,39.921L54.999,44.55ZM44.886,39.921L42.8,37.835C41.522,36.557 39.448,36.557 38.171,37.835C36.893,39.112 36.893,41.186 38.171,42.464L40.257,44.55L44.886,39.921ZM51.831,33.629C50.502,33.22 49.09,33 47.628,33C46.165,33 44.754,33.22 43.424,33.629C44.192,33.974 44.911,34.462 45.542,35.093L47.628,37.179L49.714,35.093C50.345,34.462 51.064,33.974 51.831,33.629Z"/>
    <path id="border" d="M47.628,-0C36.789,-0 26.687,4.909 18.561,13.504C7.429,25.279 0,44.214 0,65.636C0,87.058 7.429,105.993 18.561,117.768C26.687,126.363 36.789,131.272 47.628,131.272C58.466,131.272 68.569,126.363 76.694,117.768C87.827,105.993 95.256,87.058 95.256,65.636C95.256,44.214 87.827,25.279 76.694,13.504C68.569,4.909 58.466,-0 47.628,-0ZM47.628,6.943C70.083,6.943 88.313,33.242 88.313,65.636C88.313,98.03 70.083,124.329 47.628,124.329C25.173,124.329 6.943,98.03 6.943,65.636C6.943,33.242 25.173,6.943 47.628,6.943Z"/>
</svg>
